<?xml version="1.0" encoding="UTF-8"?>
<svg xmlns="http://www.w3.org/2000/svg" xmlns:xlink="http://www.w3.org/1999/xlink" width="64px" height="64px" viewBox="0 0 64 64" version="1.1">
<g id="surface1">
<path style=" stroke:none;fill-rule:nonzero;fill:rgb(95.294118%,85.490196%,20.784314%);fill-opacity:1;" d="M 16 18 C 16 16.894531 16.894531 16 18 16 L 24 16 C 25.105469 16 26 16.894531 26 18 C 26 19.105469 25.105469 20 24 20 L 24 22 L 40.558594 22 L 42.105469 17.367188 C 42.375 16.550781 43.140625 16 44 16 L 48 16 C 49.105469 16 50 16.894531 50 18 C 50 19.105469 49.105469 20 48 20 L 45.441406 20 L 44.195312 23.738281 L 47.425781 28.898438 C 53.191406 26.523438 59.820312 28.957031 62.671875 34.507812 C 65.523438 40.054688 63.648438 46.863281 58.359375 50.167969 C 53.070312 53.476562 46.128906 52.175781 42.390625 47.183594 C 38.652344 42.1875 39.367188 35.160156 44.03125 31.019531 L 42 27.773438 L 33.695312 41.058594 C 33.332031 41.644531 32.691406 42 32 42 L 23.835938 42 C 22.984375 47.027344 19.050781 50.96875 14.027344 51.828125 C 9 52.6875 3.980469 50.277344 1.507812 45.816406 C -0.964844 41.359375 -0.347656 35.824219 3.042969 32.015625 C 6.433594 28.210938 11.863281 26.960938 16.574219 28.902344 L 20 23.425781 L 20 20 L 18 20 C 16.894531 20 16 19.105469 16 18 Z M 22 27.773438 L 19.96875 31.027344 C 21.96875 32.804688 23.367188 35.242188 23.835938 38 L 28.390625 38 Z M 32 36.226562 L 38.390625 26 L 25.609375 26 Z M 19.746094 38 C 19.40625 36.683594 18.738281 35.476562 17.800781 34.492188 L 15.609375 38 Z M 14.410156 32.367188 C 11.289062 31.382812 7.882812 32.398438 5.808594 34.933594 C 3.738281 37.46875 3.417969 41.007812 5.003906 43.875 C 6.589844 46.738281 9.761719 48.34375 13.011719 47.933594 C 16.257812 47.519531 18.929688 45.167969 19.746094 42 L 12 42 C 11.273438 42 10.601562 41.605469 10.25 40.96875 C 9.898438 40.332031 9.917969 39.554688 10.304688 38.941406 Z M 46.199219 34.488281 C 43.425781 37.410156 43.257812 41.9375 45.804688 45.058594 C 48.355469 48.175781 52.824219 48.914062 56.242188 46.78125 C 59.65625 44.644531 60.953125 40.304688 59.265625 36.644531 C 57.578125 32.988281 53.433594 31.15625 49.59375 32.367188 L 53.695312 38.941406 C 54.28125 39.875 53.996094 41.109375 53.058594 41.695312 C 52.125 42.28125 50.890625 41.996094 50.304688 41.058594 L 46.199219 34.492188 Z M 46.199219 34.488281 "/>
</g>
</svg>
